<svg width="58" height="56" viewBox="0 0 58 56" fill="none" xmlns="http://www.w3.org/2000/svg">
<path d="M29 0C45.0202 0 58 12.5323 58 28C58 43.4677 45.0202 56 29 56C12.9798 56 0 43.4677 0 28C0 12.5323 12.9798 0 29 0ZM15.4355 32.9677H29V40.9726C29 42.1806 30.5202 42.7903 31.3972 41.9323L44.7629 28.9597C45.3125 28.429 45.3125 27.5823 44.7629 27.0516L31.3972 14.0677C30.5085 13.2097 29 13.8194 29 15.0274V23.0323H15.4355C14.6637 23.0323 14.0323 23.6419 14.0323 24.3871V31.6129C14.0323 32.3581 14.6637 32.9677 15.4355 32.9677Z" fill="black"/>
</svg>
