<svg width="184" height="27" viewBox="0 0 184 27" fill="none" xmlns="http://www.w3.org/2000/svg">
<path d="M24.408 10.432C24.408 13.44 23.4693 15.776 21.592 17.44C19.7147 19.104 17.0373 20 13.56 20.128L14.488 13.504H14.168C12.5253 16.32 10.808 18.5707 9.016 20.256H8.536C6.91467 19.296 6.104 17.6 6.104 15.168C6.104 13.632 6.392 12.1387 6.968 10.688C7.544 9.23733 8.408 8.01067 9.56 7.008C10.712 5.984 12.0987 5.35467 13.72 5.12H13.88L15.928 5.856L17.4 5.12L17.72 5.248L16.12 16.48L16.056 18.24C18.1467 17.984 19.768 17.184 20.92 15.84C22.072 14.496 22.648 12.7253 22.648 10.528C22.648 8.84267 22.2747 7.36 21.528 6.08C20.8027 4.8 19.7573 3.808 18.392 3.104C17.0267 2.4 15.4267 2.048 13.592 2.048C11.288 2.048 9.25067 2.53867 7.48 3.52C5.73067 4.50133 4.36533 5.87733 3.384 7.648C2.40267 9.39733 1.912 11.4027 1.912 13.664C1.912 15.968 2.41333 17.9627 3.416 19.648C4.44 21.312 5.86933 22.5813 7.704 23.456C9.56 24.352 11.7253 24.8 14.2 24.8L14.264 25.056L13.496 26.336C10.8293 26.3147 8.49333 25.8027 6.488 24.8C4.48267 23.7973 2.92533 22.368 1.816 20.512C0.706667 18.6773 0.152 16.512 0.152 14.016C0.152 11.3707 0.706667 9.01333 1.816 6.944C2.94667 4.87467 4.52533 3.264 6.552 2.112C8.6 0.938666 10.9573 0.351999 13.624 0.351999C15.7787 0.351999 17.6667 0.767999 19.288 1.6C20.9307 2.432 22.1893 3.616 23.064 5.152C23.96 6.66667 24.408 8.42667 24.408 10.432ZM9.24 17.6C9.496 17.6 9.944 17.248 10.584 16.544C11.224 15.84 11.9493 14.8267 12.76 13.504C13.592 12.16 14.392 10.5813 15.16 8.768L15.192 8.576L15.256 7.776L13.24 7.072C12.216 7.072 11.3307 7.41333 10.584 8.096C9.83733 8.75733 9.26133 9.65333 8.856 10.784C8.45067 11.9147 8.248 13.1733 8.248 14.56C8.248 15.648 8.344 16.4267 8.536 16.896C8.74933 17.3653 8.984 17.6 9.24 17.6ZM36.8623 18.208L36.7023 20H28.2223L28.3183 15.2L28.2223 4.064H30.6223L30.5263 15.008L30.5903 17.984H36.7343L36.8623 18.208ZM52.7648 20H50.3648L49.9808 18.272L49.1488 15.904L45.3408 15.872L41.9488 15.904L41.0848 18.144L40.6368 20H38.2688L44.4128 4.064H47.1648L52.7648 20ZM48.4768 13.952L45.8208 6.4H45.6288L42.7168 13.952L45.5328 13.984L48.4768 13.952ZM64.0518 13.568C65.3531 15.552 66.7931 17.504 68.3718 19.424L68.3398 19.744C67.4438 20.0213 66.7078 20.1813 66.1318 20.224L65.7158 19.968C64.0944 17.5147 62.8678 15.584 62.0358 14.176L59.0278 14.208V15.008L59.0918 20H56.7238L56.8198 15.2L56.7238 4.064L62.1638 4.032C63.8491 4.032 65.1398 4.42667 66.0358 5.216C66.9531 6.00533 67.4118 7.14667 67.4118 8.64C67.4118 9.728 67.1131 10.6987 66.5158 11.552C65.9398 12.4053 65.1184 13.0773 64.0518 13.568ZM59.0598 12.224L62.0677 12.32C63.9664 11.7867 64.9158 10.624 64.9158 8.832C64.9158 7.89333 64.6384 7.18933 64.0838 6.72C63.5291 6.25067 62.6864 5.99467 61.5558 5.952L59.0918 5.984L59.0598 12.224ZM85.0148 20H82.6148L82.2308 18.272L81.3988 15.904L77.5908 15.872L74.1988 15.904L73.3348 18.144L72.8868 20H70.5188L76.6628 4.064H79.4148L85.0148 20ZM80.7268 13.952L78.0708 6.4H77.8788L74.9668 13.952L77.7828 13.984L80.7268 13.952ZM94.655 20H91.807L86.239 4.064H88.703L89.087 5.824L93.215 17.632H93.375L97.951 5.92L98.335 4.064H100.735L94.655 20ZM113.983 17.952L114.175 18.144L113.951 20H104.255L104.351 15.2L104.255 4.064H114.015L114.175 4.256L113.983 6.112L109.951 5.984L106.623 6.016L106.591 10.848L109.759 10.88L112.543 10.784L112.703 11.008L112.511 12.896L109.567 12.8L106.591 12.832L106.559 15.008L106.591 18.048L109.727 18.08L113.983 17.952ZM126.737 18.208L126.577 20H118.097L118.193 15.2L118.097 4.064H120.497L120.401 15.008L120.465 17.984H126.609L126.737 18.208ZM130 3.968C131.152 4.39467 131.728 5.19467 131.728 6.368C131.728 7.69067 130.949 9.12 129.392 10.656L128.432 9.984L128.4 9.76C129.296 8.8 129.744 7.904 129.744 7.072C129.744 6.21867 129.328 5.632 128.496 5.312V5.056C128.901 4.672 129.402 4.30933 130 3.968ZM140.272 3.904C141.573 3.904 142.874 4.16 144.176 4.672L143.76 7.04L143.376 7.136C142.778 6.66667 142.213 6.32533 141.68 6.112C141.146 5.87733 140.592 5.76 140.016 5.76C139.098 5.76 138.373 6.00533 137.84 6.496C137.306 6.96533 137.04 7.50933 137.04 8.128C137.04 8.74667 137.296 9.248 137.808 9.632C138.341 10.016 139.152 10.4427 140.24 10.912C141.2 11.3387 141.957 11.7227 142.512 12.064C143.088 12.4053 143.578 12.864 143.984 13.44C144.41 13.9947 144.624 14.6773 144.624 15.488C144.624 16.32 144.4 17.0987 143.952 17.824C143.504 18.528 142.842 19.104 141.968 19.552C141.114 19.9787 140.09 20.192 138.896 20.192C138.149 20.192 137.36 20.1067 136.528 19.936C135.717 19.744 134.96 19.4667 134.256 19.104L134.544 16.576L134.864 16.448C135.461 17.0453 136.154 17.5147 136.944 17.856C137.754 18.176 138.501 18.336 139.184 18.336C140.08 18.336 140.816 18.1013 141.392 17.632C141.968 17.1413 142.256 16.5547 142.256 15.872C142.256 15.232 141.989 14.72 141.456 14.336C140.944 13.952 140.133 13.504 139.024 12.992C138.106 12.5867 137.349 12.2133 136.752 11.872C136.176 11.5307 135.685 11.0827 135.28 10.528C134.874 9.952 134.672 9.25867 134.672 8.448C134.672 7.59467 134.896 6.82667 135.344 6.144C135.813 5.46133 136.464 4.91733 137.296 4.512C138.149 4.10667 139.141 3.904 140.272 3.904ZM161.931 11.712C164.299 12.1813 165.483 13.44 165.483 15.488C165.483 17.024 164.885 18.176 163.691 18.944C162.496 19.712 160.747 20.096 158.443 20.096C157.056 20.096 155.723 20.064 154.443 20L154.539 15.2L154.443 4.064L159.435 4.032C161.035 4.032 162.272 4.37333 163.147 5.056C164.043 5.71733 164.491 6.66667 164.491 7.904C164.491 8.82133 164.267 9.6 163.819 10.24C163.371 10.88 162.741 11.3707 161.931 11.712ZM161.963 8.192C161.963 7.40267 161.707 6.82667 161.195 6.464C160.683 6.10133 159.861 5.92 158.731 5.92H156.779L156.747 10.848L159.595 10.944C160.384 10.7733 160.971 10.4747 161.355 10.048C161.76 9.6 161.963 8.98133 161.963 8.192ZM158.731 18.272C160.117 18.272 161.173 18.0373 161.899 17.568C162.645 17.0773 163.019 16.3627 163.019 15.424C163.019 14.656 162.763 14.0587 162.251 13.632C161.739 13.2053 160.96 12.9173 159.915 12.768L156.747 12.8L156.715 15.008L156.779 18.176C157.44 18.24 158.091 18.272 158.731 18.272ZM176.089 3.936C178.521 3.936 180.377 4.58667 181.657 5.888C182.958 7.18933 183.609 9.056 183.609 11.488C183.609 14.2827 182.905 16.4267 181.497 17.92C180.089 19.4133 178.073 20.16 175.449 20.16C174.702 20.16 173.806 20.1387 172.761 20.096C171.737 20.0747 170.766 20.0427 169.849 20L169.945 15.2L169.849 4.064L176.089 3.936ZM175.833 18.208C177.539 18.208 178.851 17.696 179.769 16.672C180.707 15.6267 181.177 14.0587 181.177 11.968C181.177 9.92 180.739 8.40533 179.865 7.424C178.99 6.44267 177.667 5.952 175.897 5.952C174.851 5.952 173.625 5.99467 172.217 6.08L172.153 15.008L172.185 18.016C172.803 18.0587 173.454 18.1013 174.137 18.144C174.819 18.1867 175.385 18.208 175.833 18.208Z" fill="black"/>
</svg>
