<svg width="77" height="40" viewBox="0 0 77 40" fill="none" xmlns="http://www.w3.org/2000/svg">
<path d="M38.0273 1.99644C58.3957 1.99644 74.0582 10.5764 74.0582 20C74.0582 29.4237 58.3838 38.0036 38.0273 38.0036C17.6589 38.0036 1.99644 29.4237 1.99644 20C1.99644 10.5764 17.6708 1.99644 38.0273 1.99644ZM38.0273 0C17.0291 0 0 8.94831 0 20C0 31.0517 17.0291 40 38.0273 40C59.0256 40 76.0547 31.0517 76.0547 20C76.0547 8.94831 59.0256 0 38.0273 0ZM25.9299 18.3957C24.9911 23.2086 21.6756 22.7094 17.5995 22.7094L19.2276 14.3197C23.7433 14.3197 26.8093 13.8324 25.9299 18.3957ZM11.5746 31.2062H15.9358L16.9697 25.8824C21.8538 25.8824 24.8841 26.2389 27.6887 23.6126C30.7903 20.7605 31.5983 15.6863 29.388 13.1432C28.2353 11.8122 26.3815 11.1586 23.8622 11.1586H15.4605L11.5746 31.2062ZM33.6423 5.82294H37.9798L36.9459 11.1468C40.6892 11.1468 44.1592 10.8734 45.8348 12.4183C47.5936 14.0345 46.7499 16.1022 44.8485 25.8586H40.4516C42.2816 16.4231 42.6263 15.6387 41.9608 14.9257C41.3191 14.2365 39.8574 14.3791 36.328 14.3791L34.0939 25.8586H29.7564L33.6423 5.82294ZM60.0119 18.3957C59.0612 23.2799 55.6506 22.7094 51.6815 22.7094L53.3096 14.3197C57.8491 14.3197 60.8913 13.8324 60.0119 18.3957ZM45.6566 31.2062H50.0297L51.0636 25.8824C56.1973 25.8824 59.0374 26.1794 61.7825 23.6126C64.8841 20.7605 65.6922 15.6863 63.4819 13.1432C62.3292 11.8122 60.4754 11.1586 57.956 11.1586H49.5544L45.6566 31.2062Z" fill="white"/>
</svg>
