<svg width="39" height="20" viewBox="0 0 39 20" fill="none" xmlns="http://www.w3.org/2000/svg">
<path d="M19.0137 0.998218C29.1979 0.998218 37.0291 5.28818 37.0291 10C37.0291 14.7118 29.1919 19.0018 19.0137 19.0018C8.82947 19.0018 0.998218 14.7118 0.998218 10C0.998218 5.28818 8.83541 0.998218 19.0137 0.998218ZM19.0137 0C8.51456 0 0 4.47415 0 10C0 15.5258 8.51456 20 19.0137 20C29.5128 20 38.0273 15.5258 38.0273 10C38.0273 4.47415 29.5128 0 19.0137 0ZM12.9649 9.19786C12.4955 11.6043 10.8378 11.3547 8.79976 11.3547L9.61379 7.15983C11.8717 7.15983 13.4046 6.91622 12.9649 9.19786ZM5.78729 15.6031H7.96792L8.48485 12.9412C10.9269 12.9412 12.4421 13.1194 13.8443 11.8063C15.3951 10.3803 15.7992 7.84314 14.694 6.5716C14.1176 5.90612 13.1907 5.57932 11.9311 5.57932H7.73024L5.78729 15.6031ZM16.8212 2.91147H18.9899L18.473 5.57338C20.3446 5.57338 22.0796 5.43672 22.9174 6.20915C23.7968 7.01723 23.3749 8.0511 22.4242 12.9293H20.2258C21.1408 8.21153 21.3131 7.81937 20.9804 7.46286C20.6595 7.11824 19.9287 7.18954 18.164 7.18954L17.0469 12.9293H14.8782L16.8212 2.91147ZM30.0059 9.19786C29.5306 11.6399 27.8253 11.3547 25.8408 11.3547L26.6548 7.15983C28.9245 7.15983 30.4456 6.91622 30.0059 9.19786ZM22.8283 15.6031H25.0149L25.5318 12.9412C28.0986 12.9412 29.5187 13.0897 30.8913 11.8063C32.4421 10.3803 32.8461 7.84314 31.7409 6.5716C31.1646 5.90612 30.2377 5.57932 28.978 5.57932H24.7772L22.8283 15.6031Z" fill="white"/>
</svg>
