<svg width="26" height="30" viewBox="0 0 26 30" fill="none" xmlns="http://www.w3.org/2000/svg">
<path d="M10.8955 29.657L8.51269 28.6575C8.26269 28.5558 8.12207 28.1775 8.19238 27.8161L13.5244 1.26409C13.5947 0.902683 13.8564 0.699393 14.1064 0.801038L16.4893 1.80055C16.7393 1.90219 16.8799 2.28054 16.8096 2.64195L11.4775 29.1939C11.4033 29.5553 11.1455 29.7643 10.8955 29.657ZM6.44238 23.3211L8.1416 20.7009C8.32129 20.4242 8.30957 19.9838 8.11035 19.7296L4.57129 15.229L8.11035 10.7284C8.30957 10.4743 8.32519 10.0338 8.1416 9.75711L6.44238 7.13692C6.2666 6.86587 5.96973 6.84893 5.77832 7.10869L0.149414 14.7321C-0.0498047 14.9975 -0.0498047 15.4549 0.149414 15.7203L5.77832 23.3493C5.96973 23.6091 6.2666 23.5978 6.44238 23.3211ZM19.2236 23.355L24.8525 15.7259C25.0518 15.4605 25.0518 15.0031 24.8525 14.7377L19.2236 7.10304C19.0361 6.84893 18.7393 6.86022 18.5596 7.13128L16.8604 9.75147C16.6807 10.0282 16.6924 10.4686 16.8916 10.7227L20.4307 15.229L16.8916 19.7296C16.6924 19.9838 16.6768 20.4242 16.8604 20.7009L18.5596 23.3211C18.7354 23.5978 19.0322 23.6091 19.2236 23.355Z" fill="#213872"/>
</svg>
